<svg width="81" height="80" viewBox="0 0 81 80" fill="none" xmlns="http://www.w3.org/2000/svg">
<path d="M28 42.5H20.5V50H28V42.5Z" fill="#ED5303"/>
<path d="M60.5 42.5H53V50H60.5V42.5Z" fill="#ED5303"/>
<path d="M79.5137 37.2362L43.5475 1.26875C43.5475 1.26875 42.3763 0 40.51 0C38.6437 0 37.54 1.23875 37.54 1.23875L25.5 13.255V6.25C25.5 5.55875 24.9412 5 24.25 5H16.75C16.0588 5 15.5 5.55875 15.5 6.25V23.2363L1.47875 37.2288C0.8 37.9075 0.5 38.965 0.5 40C0.5 42.07 2.17875 43.75 4.25 43.75C5.285 43.75 6.3275 43.4363 7.00625 42.7575L8 41.7637V75C8 77.7637 10.2362 80 13 80H68C70.7637 80 73 77.7637 73 75V41.7425L74.005 42.7475C74.6838 43.4238 75.715 43.75 76.75 43.75C78.8213 43.75 80.5 42.0713 80.5 40C80.5 38.9637 80.1925 37.915 79.5137 37.2362ZM30.5 51.25C30.5 51.9412 29.9412 52.5 29.25 52.5H19.25C18.5588 52.5 18 51.9412 18 51.25V41.25C18 40.5588 18.5588 40 19.25 40H29.25C29.9412 40 30.5 40.5588 30.5 41.25V51.25ZM48 77.5025H33V58.7525C33 58.0612 33.5588 57.5025 34.25 57.5025H46.75C47.4412 57.5025 48 58.0612 48 58.7525V77.5025ZM63 51.25C63 51.9412 62.4412 52.5 61.75 52.5H51.75C51.0588 52.5 50.5 51.9412 50.5 51.25V41.25C50.5 40.5588 51.0588 40 51.75 40H61.75C62.4412 40 63 40.5588 63 41.25V51.25ZM76.75 41.25C76.405 41.25 75.9975 41.205 75.7725 40.9788L41.395 6.60125C41.1512 6.3575 40.8312 6.235 40.5112 6.235C40.1912 6.235 39.8713 6.3575 39.6275 6.60125L5.23875 40.9912C5.0125 41.2175 4.595 41.25 4.25 41.25C3.55875 41.25 3 40.6912 3 40C3 39.655 3.02 39.2225 3.24625 38.9963L39.2938 3.0125C39.2938 3.0125 39.76 2.5 40.5112 2.5C41.2625 2.5 41.7388 2.9975 41.7388 2.9975L77.7463 39.0037C77.9725 39.23 78 39.655 78 40C78 40.69 77.4413 41.25 76.75 41.25Z" fill="#ED5303"/>
</svg>
