<svg width="61" height="60" viewBox="0 0 61 60" fill="none" xmlns="http://www.w3.org/2000/svg">
<g clip-path="url(#clip0_317_632)">
<path d="M56.5545 38.3075C55.1349 37.6872 53.4807 38.3351 52.8603 39.755C48.9758 48.6446 40.1991 54.3886 30.5003 54.3886C22.7347 54.3886 15.5633 50.7043 11.0181 44.6738L12.6914 45.0068C14.2111 45.3084 15.688 44.3222 15.9907 42.8025C16.2929 41.2828 15.3061 39.8057 13.7864 39.5032L5.9303 37.9405C5.20011 37.7955 4.44296 37.9459 3.82422 38.3595C3.20535 38.7728 2.77622 39.4151 2.63114 40.1448L1.0681 48.0011C0.765876 49.5208 1.75271 50.9979 3.27239 51.3004C3.45719 51.3371 3.64141 51.3548 3.82269 51.3548C5.13402 51.3548 6.30588 50.431 6.57143 49.0961L6.72916 48.3031C12.3285 55.5708 21.0572 60.0001 30.5003 60.0001C42.4294 60.0001 53.2244 52.9354 58.002 42.0022C58.6224 40.5819 57.9744 38.9279 56.5545 38.3075Z" fill="#ED5303"/>
<path d="M57.7279 8.70136C56.2083 8.39878 54.731 9.38631 54.4288 10.9059L54.2712 11.6979C48.6721 4.42966 39.9429 0 30.5 0C18.5702 0 7.77535 7.06472 2.99811 17.998C2.37772 19.4179 3.02577 21.0718 4.4456 21.6922C5.86508 22.3128 7.51941 21.6646 8.1398 20.2447C12.024 11.3551 20.8007 5.61126 30.5 5.61126C38.2659 5.61126 45.4379 9.29631 49.9833 15.3277L48.3097 14.9948C46.7879 14.6926 45.3127 15.6795 45.0104 17.1993C44.7082 18.719 45.695 20.1961 47.2149 20.4983L55.071 22.0609C55.2526 22.097 55.4357 22.1148 55.6183 22.1148C56.1689 22.1148 56.7123 21.9525 57.1771 21.6419C57.7958 21.2286 58.2249 20.5861 58.37 19.8565L59.9326 12.0004C60.2346 10.4805 59.2475 9.00358 57.7279 8.70136Z" fill="#ED5303"/>
<path d="M39.5123 22.2287L32.0306 17.3607C31.1 16.7552 29.9004 16.7552 28.9704 17.3605L21.4884 22.2287C20.6927 22.7464 20.2129 23.6313 20.2129 24.5804V36.5462C20.2129 38.0957 21.469 39.3518 23.0185 39.3518H37.9822C39.5316 39.3518 40.7877 38.0957 40.7877 36.5462V24.5803C40.7878 23.6312 40.3079 22.7463 39.5123 22.2287Z" fill="#045501"/>
<path d="M58.0014 42.0017C58.6218 40.5819 57.9739 38.9279 56.5539 38.3075C55.1343 37.6872 53.4801 38.3351 52.8597 39.755C48.9752 48.6444 40.1987 54.3884 30.5 54.3886V59.9999C42.4289 59.9994 53.2238 52.9349 58.0014 42.0017Z" fill="#ED5303"/>
<path d="M57.7275 8.70136C56.208 8.39878 54.7307 9.38631 54.4285 10.9059L54.2709 11.6979C48.6718 4.42966 39.9428 0.000234374 30.5 0V5.61126C38.266 5.61126 45.4377 9.29655 49.983 15.3277L48.3093 14.9948C46.7876 14.6926 45.3124 15.6795 45.0101 17.1993C44.7078 18.719 45.6947 20.1961 47.2146 20.4983L55.0707 22.0609C55.2523 22.097 55.4354 22.1148 55.6179 22.1148C56.1686 22.1148 56.712 21.9525 57.1768 21.6419C57.7955 21.2286 58.2245 20.5861 58.3697 19.8565L59.9323 12.0004C60.2343 10.4805 59.2472 9.00358 57.7275 8.70136Z" fill="#ED5303"/>
<path d="M37.9818 39.352C39.5312 39.352 40.7874 38.0959 40.7874 36.5465V24.5805C40.7874 23.6313 40.3074 22.7465 39.5119 22.2288L32.0302 17.3609C31.5651 17.0581 31.0325 16.9068 30.5 16.9068V39.3521H37.9818V39.352Z" fill="#045501"/>
<path d="M39.8491 28.6033C39.3245 28.6033 38.794 28.4562 38.3216 28.149L30.4997 23.0596L22.6779 28.149C21.3797 28.994 19.6412 28.6263 18.7961 27.3275C17.951 26.0287 18.3189 24.2907 19.6178 23.4458L28.9699 17.361C29.9004 16.7557 31.0997 16.7557 32.0301 17.361L41.3822 23.4458C42.6808 24.2908 43.0487 26.0288 42.2039 27.3275C41.6657 28.1537 40.7664 28.6033 39.8491 28.6033Z" fill="#ED5303"/>
<path d="M41.3823 23.4456L32.0302 17.3607C31.5651 17.0582 31.0325 16.9068 30.5 16.9068V23.0597L38.3219 28.1491C38.7944 28.4566 39.3248 28.6034 39.8494 28.6034C40.7666 28.6034 41.6659 28.154 42.2037 27.3276C43.049 26.0287 42.6812 24.2907 41.3823 23.4456Z" fill="#ED5303"/>
</g>
<defs>
<clipPath id="clip0_317_632">
<rect width="60" height="60" fill="white" transform="translate(0.5)"/>
</clipPath>
</defs>
</svg>
